<svg xmlns="http://www.w3.org/2000/svg" viewBox="0 0 1200 760"><defs><linearGradient id="g" x1="0" y1="0" x2="1" y2="1"><stop stop-color="#8B5CF6"/><stop offset="1" stop-color="#3B82F6"/></linearGradient><filter id="b"><feGaussianBlur stdDeviation="24"/></filter></defs><rect width="1200" height="760" fill="#07101f"/><circle cx="220" cy="160" r="180" fill="#8B5CF6" opacity=".2" filter="url(#b)"/><circle cx="940" cy="180" r="210" fill="#3B82F6" opacity=".18" filter="url(#b)"/><g opacity=".22" stroke="#fff"><path d="M0 120h1200M0 240h1200M0 360h1200M0 480h1200M0 600h1200M150 0v760M300 0v760M450 0v760M600 0v760M750 0v760M900 0v760M1050 0v760"/></g><g transform="translate(210 170)"><rect x="0" y="0" width="780" height="420" rx="42" fill="rgba(255,255,255,.08)" stroke="rgba(255,255,255,.22)"/><circle cx="110" cy="110" r="55" fill="url(#g)" opacity=".9"/><circle cx="390" cy="215" r="95" fill="url(#g)" opacity=".28"/><path d="M110 110 C240 70 260 260 390 215 S590 120 680 250" fill="none" stroke="url(#g)" stroke-width="12" stroke-linecap="round"/><rect x="75" y="265" width="260" height="24" rx="12" fill="#fff" opacity=".32"/><rect x="75" y="310" width="430" height="20" rx="10" fill="#fff" opacity=".18"/><rect x="560" y="85" width="140" height="140" rx="32" fill="#fff" opacity=".08" stroke="#fff" stroke-opacity=".18"/></g><text x="70" y="700" fill="#cbd5e1" font-family="Inter,Arial" font-size="42" font-weight="800">Data Intelligence</text></svg>